<?xml version="1.0" encoding="UTF-8" standalone="no"?>
<!-- Created with Inkscape (http://www.inkscape.org/) -->

<svg
   xmlns:dc="http://purl.org/dc/elements/1.1/"
   xmlns:cc="http://creativecommons.org/ns#"
   xmlns:rdf="http://www.w3.org/1999/02/22-rdf-syntax-ns#"
   xmlns:svg="http://www.w3.org/2000/svg"
   xmlns="http://www.w3.org/2000/svg"
   xmlns:sodipodi="http://sodipodi.sourceforge.net/DTD/sodipodi-0.dtd"
   xmlns:inkscape="http://www.inkscape.org/namespaces/inkscape"
   width="200"
   height="200"
   viewBox="0 0 52.916665 52.916668"
   version="1.1"
   id="svg8"
   inkscape:version="0.92.3 (2405546, 2018-03-11)"
   sodipodi:docname="back10.svg">
  <defs
     id="defs2" />
  <sodipodi:namedview
     id="base"
     pagecolor="#ffffff"
     bordercolor="#666666"
     borderopacity="1.0"
     inkscape:pageopacity="0.0"
     inkscape:pageshadow="2"
     inkscape:zoom="3.0490527"
     inkscape:cx="19.710102"
     inkscape:cy="77.460362"
     inkscape:document-units="mm"
     inkscape:current-layer="g4579"
     showgrid="true"
     units="px"
     inkscape:window-width="1920"
     inkscape:window-height="1017"
     inkscape:window-x="-8"
     inkscape:window-y="-8"
     inkscape:window-maximized="1">
    <inkscape:grid
       type="xygrid"
       id="grid26" />
  </sodipodi:namedview>
  <metadata
     id="metadata5">
    <rdf:RDF>
      <cc:Work
         rdf:about="">
        <dc:format>image/svg+xml</dc:format>
        <dc:type
           rdf:resource="http://purl.org/dc/dcmitype/StillImage" />
        <dc:title></dc:title>
      </cc:Work>
    </rdf:RDF>
  </metadata>
  <g
     inkscape:label="Layer 1"
     inkscape:groupmode="layer"
     id="layer1"
     transform="translate(0,-244.08332)">
    <g
       aria-label="10"
       transform="scale(0.99022225,1.0098743)"
       style="font-style:normal;font-variant:normal;font-weight:normal;font-stretch:normal;font-size:10.75287342px;line-height:1.25;font-family:Arial;-inkscape-font-specification:Arial;letter-spacing:0px;word-spacing:0px;fill:#ffffff;fill-opacity:1;stroke:none;stroke-width:0.26882184"
       id="text20">
      <g
         aria-label="30"
         transform="scale(1.0069765,0.99307183)"
         style="font-style:normal;font-variant:normal;font-weight:normal;font-stretch:normal;font-size:10.55296516px;line-height:1.25;font-family:Arial;-inkscape-font-specification:Arial;letter-spacing:0px;word-spacing:0px;fill:#ffffff;fill-opacity:1;stroke:none;stroke-width:0.07092169"
         id="text4583" />
    </g>
    <text
       xml:space="preserve"
       style="font-style:normal;font-variant:normal;font-weight:normal;font-stretch:normal;font-size:10.58333302px;line-height:1.25;font-family:Arial;-inkscape-font-specification:Arial;letter-spacing:0px;word-spacing:0px;fill:#ffffff;fill-opacity:1;stroke:none;stroke-width:0.26458332"
       x="20.977678"
       y="260.24179"
       id="text24"><tspan
         sodipodi:role="line"
         id="tspan22"
         x="20.977678"
         y="269.77478"
         style="stroke-width:0.26458332" /></text>
    <g
       id="g4579"
       transform="matrix(-1.0004275,0,0,0.9999928,52.09287,0.00194624)">
      <path
         transform="scale(-1)"
         sodipodi:open="true"
         d="m -2.8830776,-273.1875 a 20.75672,21.915676 0 0 1 -18.9476524,21.83228 20.75672,21.915676 0 0 1 -22.250445,-18.02666"
         sodipodi:end="2.9670597"
         sodipodi:start="0"
         sodipodi:ry="21.915676"
         sodipodi:rx="20.75672"
         sodipodi:cy="-273.1875"
         sodipodi:cx="-23.639797"
         sodipodi:type="arc"
         id="path32"
         style="fill:none;stroke:#ffffff;stroke-width:3.79170275;stroke-miterlimit:4;stroke-dasharray:none" />
      <path
         sodipodi:type="star"
         style="fill:#ffffff;stroke:#ffffff;stroke-width:16;stroke-miterlimit:4;stroke-dasharray:none"
         id="path5133"
         sodipodi:sides="3"
         sodipodi:cx="100"
         sodipodi:cy="130"
         sodipodi:r1="10"
         sodipodi:r2="5"
         sodipodi:arg1="1.5707963"
         sodipodi:arg2="2.6179939"
         inkscape:flatsided="true"
         inkscape:rounded="0"
         inkscape:randomized="0"
         d="m 100,140 -8.660254,-15 17.320504,0 z"
         transform="matrix(0.25383296,-0.07428421,0.07425194,0.25394331,8.3173125,241.09509)"
         inkscape:transform-center-y="0.3131954"
         inkscape:transform-center-x="-0.37141849" />
      <g
         aria-label="10"
         transform="scale(-0.99978274,1.0002173)"
         style="font-style:normal;font-variant:normal;font-weight:normal;font-stretch:normal;font-size:21.16222px;line-height:1.25;font-family:Arial;-inkscape-font-specification:Arial;letter-spacing:0px;word-spacing:0px;fill:#ffffff;fill-opacity:1;stroke:none;stroke-width:0.26452774"
         id="text5137">
        <path
           d="m -30.13439,285.0368 h -3.871474 v -14.59035 q -2.121733,1.98395 -5.001227,2.9346 v -3.51326 q 1.515523,-0.49599 3.292819,-1.87374 1.777296,-1.39152 2.438615,-3.23771 h 3.141267 z"
           style="stroke:#ffffff;fill:#ffffff"
           id="path5139" />
        <path
           d="m -17.789761,264.75634 q 2.934604,0 4.587903,2.09418 1.97018,2.47995 1.97018,8.22516 0,5.73144 -1.983958,8.23894 -1.639521,2.06662 -4.574125,2.06662 -2.948383,0 -4.753233,-2.25951 -1.804851,-2.27328 -1.804851,-8.08738 0,-5.70388 1.983958,-8.21138 1.639521,-2.06663 4.574126,-2.06663 z m 0,3.21016 q -0.702652,0 -1.253752,0.45465 -0.551099,0.44088 -0.854204,1.59819 -0.399547,1.50175 -0.399547,5.05634 0,3.55459 0.358215,4.89101 0.358214,1.32264 0.895536,1.76352 0.5511,0.44088 1.253752,0.44088 0.702651,0 1.253751,-0.44088 0.551099,-0.45466 0.854204,-1.61197 0.399547,-1.48797 0.399547,-5.04256 0,-3.55459 -0.358214,-4.87723 -0.358215,-1.33642 -0.909315,-1.7773 -0.537322,-0.45465 -1.239973,-0.45465 z"
           style="stroke:#ffffff;fill:#ffffff"
           id="path5141" />
      </g>
    </g>
  </g>
</svg>
